HIERARCHY
ROOT Hips
{
	OFFSET 0.000000 0.000000 0.000000
	CHANNELS 6 Xposition Yposition Zposition Xrotation Yrotation Zrotation
	JOINT LeftUpLeg_virtual
	{
		OFFSET 0.000000 0.000000 0.000000
		CHANNELS 3 Xrotation Yrotation Zrotation
		JOINT LeftUpLeg
		{
			OFFSET 11.394100 -6.187798 -0.413800
			CHANNELS 3 Xrotation Yrotation Zrotation
			JOINT LeftLeg
			{
				OFFSET 0.430247 -32.302673 3.732800
				CHANNELS 3 Xrotation Yrotation Zrotation
				JOINT LeftFoot
				{
					OFFSET -0.430247 -48.264931 -6.423300
					CHANNELS 3 Xrotation Yrotation Zrotation
					JOINT LeftToeBase
					{
						OFFSET 4.230900 -16.068199 23.438400
						CHANNELS 3 Xrotation Yrotation Zrotation
						JOINT LeftToe_End
						{
							OFFSET 4.510700 0.695400 19.974600
							CHANNELS 3 Xrotation Yrotation Zrotation
							End Site
							{
								OFFSET 0 0 0
							}
						}
					}
				}
			}
		}
	}
	JOINT RightUpLeg_virtual
	{
		OFFSET 0.000000 0.000000 0.000000
		CHANNELS 3 Xrotation Yrotation Zrotation
		JOINT RightUpLeg
		{
			OFFSET -11.333700 -6.187798 -0.413800
			CHANNELS 3 Xrotation Yrotation Zrotation
			JOINT RightLeg
			{
				OFFSET -0.430392 -32.302628 3.733000
				CHANNELS 3 Xrotation Yrotation Zrotation
				JOINT RightFoot
				{
					OFFSET 0.430392 -48.264973 -6.423500
					CHANNELS 3 Xrotation Yrotation Zrotation
					JOINT RightToeBase
					{
						OFFSET -4.230900 -16.068199 23.438400
						CHANNELS 3 Xrotation Yrotation Zrotation
						JOINT RightToe_End
						{
							OFFSET -4.510700 0.695400 19.974600
							CHANNELS 3 Xrotation Yrotation Zrotation
							End Site
							{
								OFFSET 0 0 0
							}
						}
					}
				}
			}
		}
	}
	JOINT Spine_virtual
	{
		OFFSET 0.000000 0.000000 0.000000
		CHANNELS 3 Xrotation Yrotation Zrotation
		JOINT Spine
		{
			OFFSET -0.002400 12.777504 0.315300
			CHANNELS 3 Xrotation Yrotation Zrotation
			JOINT Spine1
			{
				OFFSET -0.002067 5.816869 0.032633
				CHANNELS 3 Xrotation Yrotation Zrotation
				JOINT Spine1_split
				{
					OFFSET -0.002067 5.816869 0.032633
					CHANNELS 3 Xrotation Yrotation Zrotation
					JOINT Spine2
					{
						OFFSET -0.002067 5.816869 0.032633
						CHANNELS 3 Xrotation Yrotation Zrotation
						JOINT Neck_virtual
						{
							OFFSET 0.000000 0.000000 0.000000
							CHANNELS 3 Xrotation Yrotation Zrotation
							JOINT Neck
							{
								OFFSET -0.003700 21.199493 -0.826900
								CHANNELS 3 Xrotation Yrotation Zrotation
								JOINT Head
								{
									OFFSET 0.000000 20.442200 4.834800
									CHANNELS 3 Xrotation Yrotation Zrotation
									JOINT HeadTop_End
									{
										OFFSET 0.000000 34.668396 4.968400
										CHANNELS 3 Xrotation Yrotation Zrotation
										End Site
										{
											OFFSET 0 0 0
										}
									}
								}
							}
						}
						JOINT LeftShoulder_virtual
						{
							OFFSET 0.000000 0.000000 0.000000
							CHANNELS 3 Xrotation Yrotation Zrotation
							JOINT LeftShoulder
							{
								OFFSET 3.288150 8.794197 -1.372250
								CHANNELS 3 Xrotation Yrotation Zrotation
								JOINT LeftShoulder_split
								{
									OFFSET 3.288150 8.794197 -1.372250
									CHANNELS 3 Xrotation Yrotation Zrotation
									JOINT LeftArm
									{
										OFFSET 11.953299 -2.279007 -0.146200
										CHANNELS 3 Xrotation Yrotation Zrotation
										JOINT LeftForeArm
										{
											OFFSET 18.448900 0.000000 0.000000
											CHANNELS 3 Xrotation Yrotation Zrotation
											JOINT LeftHand
											{
												OFFSET 29.527798 0.000000 0.000000
												CHANNELS 3 Xrotation Yrotation Zrotation
												End Site
												{
													OFFSET 0 0 0
												}
											}
										}
									}
								}
							}
						}
						JOINT RightShoulder_virtual
						{
							OFFSET 0.000000 0.000000 0.000000
							CHANNELS 3 Xrotation Yrotation Zrotation
							JOINT RightShoulder
							{
								OFFSET -3.249400 8.794197 -1.372250
								CHANNELS 3 Xrotation Yrotation Zrotation
								JOINT RightShoulder_split
								{
									OFFSET -3.249400 8.794197 -1.372250
									CHANNELS 3 Xrotation Yrotation Zrotation
									JOINT RightArm
									{
										OFFSET -11.953299 -2.279007 -0.146200
										CHANNELS 3 Xrotation Yrotation Zrotation
										JOINT RightForeArm
										{
											OFFSET -18.448900 0.000000 0.000000
											CHANNELS 3 Xrotation Yrotation Zrotation
											JOINT RightHand
											{
												OFFSET -29.527802 0.000000 0.000000
												CHANNELS 3 Xrotation Yrotation Zrotation
												End Site
												{
													OFFSET 0 0 0
												}
											}
										}
									}
								}
							}
						}
					}
				}
			}
		}
	}
}
MOTION
Frames: 11
Frame Time: 0.03333333
13.580483 87.773026 3.433147 0.000000 0.000000 0.000000 9.441946 -1.885621 -10.291621 -60.598873 -10.297389 26.217454 55.682342 -2.383832 -2.959792 0.946570 1.552685 -12.684670 -2.364061 -0.304692 0.903931 0.000000 0.000000 0.000000 10.055423 -0.659998 -11.023702 -34.777284 -23.105768 -1.452373 45.111671 4.064495 -2.173249 -16.916890 -18.125673 -5.940716 0.447288 0.148312 -1.491540 0.000000 0.000000 0.000000 8.263108 0.598738 -11.434553 7.731859 -3.400666 -7.045070 5.383456 -1.735064 -6.269703 1.150446 1.190303 0.518033 0.000000 0.000000 0.000000 7.767129 -1.807662 -6.397528 -6.822672 0.243413 -6.895023 -29.489205 -12.395169 13.110780 0.000000 0.000000 0.000000 6.624538 -1.544097 -6.094475 0.811510 -5.553914 -7.978249 -0.739303 -4.164606 0.525879 -26.826410 7.601207 -19.294166 2.499536 -59.375627 2.452055 0.000000 0.000000 0.000000 6.367115 -1.889527 -6.057099 1.857206 -2.045785 3.950695 6.480254 3.954749 -3.199688 24.773424 -8.909732 81.665703 9.106360 80.371341 -8.224947 0.000000 0.000000 0.000000 
13.679605 86.988998 2.679886 0.000000 0.000000 0.000000 9.161977 -3.083312 -9.589001 -60.672031 -10.242231 25.903127 56.942662 -1.381148 -3.031750 0.218921 2.064807 -12.807724 -1.890583 -0.195357 0.927416 0.000000 0.000000 0.000000 9.667396 -1.669889 -10.303909 -36.650542 -21.397557 -1.167022 47.064515 3.129718 -2.089479 -17.443528 -18.646012 -6.470654 0.466920 0.289919 -1.528655 0.000000 0.000000 0.000000 7.952008 -0.717929 -10.831185 8.539228 -3.007504 -6.590489 5.938913 -1.480915 -5.984164 1.263905 1.166583 0.607429 0.000000 0.000000 0.000000 8.052991 -1.581534 -6.129678 -5.952751 0.030170 -6.717307 -28.586328 -12.023621 12.784772 0.000000 0.000000 0.000000 7.033358 -1.370024 -5.979472 0.849289 -5.668947 -8.849248 -0.646087 -4.207548 0.730529 -24.023010 12.041598 -22.850615 2.030150 -57.050781 2.121566 0.000000 0.000000 0.000000 6.931699 -1.629316 -5.772514 1.853336 -0.893040 4.700888 6.113962 3.552043 -3.136800 21.727141 -5.884704 80.093687 6.644948 76.520699 -5.829373 0.000000 0.000000 0.000000 
13.621943 86.567978 1.990528 0.000000 0.000000 0.000000 8.876586 -4.132144 -8.970482 -60.378210 -10.142316 25.585084 57.502645 -0.257617 -3.183868 -0.455370 2.566518 -12.883995 -1.557202 -0.072700 0.739443 0.000000 0.000000 0.000000 9.182811 -2.709523 -9.630916 -38.209441 -19.849954 -0.850851 48.429333 2.290254 -1.954323 -17.595551 -18.937420 -6.810899 0.779667 0.437394 -1.537300 0.000000 0.000000 0.000000 7.604657 -2.238327 -10.237503 9.182627 -2.679245 -6.271265 6.357389 -1.272980 -5.736983 1.390130 1.166353 0.535227 0.000000 0.000000 0.000000 8.183357 -1.398217 -5.872985 -5.243416 -0.040800 -6.584457 -27.103905 -11.486070 12.600794 0.000000 0.000000 0.000000 7.276993 -1.215996 -5.886655 0.890476 -5.720400 -9.665108 -0.755754 -3.900780 0.966971 -21.196785 15.214402 -26.892217 1.469462 -53.702181 1.710305 0.000000 0.000000 0.000000 7.376934 -1.398084 -5.536817 1.806177 0.177478 5.491477 5.670300 3.332023 -2.976673 18.720258 -3.062267 78.268640 5.239217 72.890768 -4.521157 0.000000 0.000000 0.000000 
13.460054 86.495850 1.446434 0.000000 0.000000 0.000000 8.485154 -5.087823 -8.463632 -59.762161 -10.120506 25.291600 57.616730 0.758787 -3.340293 -0.875655 2.884231 -12.996948 -1.369987 0.046639 0.365853 0.000000 0.000000 0.000000 8.670294 -3.747114 -9.075948 -39.364737 -18.440102 -0.401047 49.137696 1.634065 -1.853249 -17.116147 -18.984313 -6.799690 0.865772 0.565280 -1.492339 0.000000 0.000000 0.000000 7.198703 -3.930165 -9.671891 9.580591 -2.409819 -6.081169 6.581648 -1.114950 -5.542401 1.409817 1.274212 0.349036 0.000000 0.000000 0.000000 8.102217 -1.251914 -5.661648 -4.648041 -0.034214 -6.489162 -25.020784 -10.893941 12.606402 0.000000 0.000000 0.000000 7.322111 -1.092189 -5.822327 0.931481 -5.664630 -10.419168 -0.956695 -3.476006 1.127343 -18.449505 16.990978 -31.005466 0.972873 -49.809865 1.341410 0.000000 0.000000 0.000000 7.632819 -1.193102 -5.370052 1.722853 1.105350 6.349180 5.358745 3.337146 -2.758145 15.808128 -0.480260 76.441326 4.305804 69.487285 -3.700113 0.000000 0.000000 0.000000 
13.242370 86.727615 0.990063 0.000000 0.000000 0.000000 7.908851 -6.048808 -8.106156 -58.725126 -10.199154 25.050079 57.465653 1.581307 -3.445505 -1.057514 2.984884 -12.969870 -1.272927 0.133420 -0.032307 0.000000 0.000000 0.000000 8.101784 -4.837486 -8.645060 -39.993117 -17.071173 0.261291 49.001789 1.142180 -1.834215 -16.015998 -18.835061 -6.644810 0.601407 0.623337 -1.361351 0.000000 0.000000 0.000000 6.686227 -5.731885 -9.171756 9.670421 -2.178920 -5.990700 6.596434 -1.006678 -5.406570 1.426457 1.532131 0.151249 0.000000 0.000000 0.000000 7.789591 -1.136573 -5.511958 -4.053924 -0.006703 -6.381655 -22.248749 -10.343916 12.811466 0.000000 0.000000 0.000000 7.178987 -1.002729 -5.784900 0.967778 -5.508950 -11.142227 -1.399671 -3.002109 1.090927 -15.904413 17.447792 -34.780723 0.676290 -46.014202 1.104905 0.000000 0.000000 0.000000 7.641270 -1.019796 -5.282380 1.632732 1.848327 7.242657 5.169545 3.487885 -2.609432 13.088424 1.926709 74.770054 3.637834 66.414068 -3.126525 0.000000 0.000000 0.000000 
12.941389 87.245392 0.675804 0.000000 0.000000 0.000000 7.101619 -6.869270 -7.885604 -57.089470 -10.242729 24.944104 56.975450 2.264220 -3.494405 -1.192965 2.998094 -12.709531 -1.104687 0.195452 -0.354652 0.000000 0.000000 0.000000 7.413563 -5.901203 -8.333698 -40.040782 -15.740372 1.092624 47.997286 0.738182 -1.894695 -14.436646 -18.544513 -6.536673 0.214074 0.581852 -1.156116 0.000000 0.000000 0.000000 5.962013 -7.481918 -8.748497 9.450907 -1.990826 -5.961325 6.398922 -0.960873 -5.325375 1.328191 1.838971 0.017150 0.000000 0.000000 0.000000 7.269150 -1.064578 -5.424176 -3.371662 -0.002349 -6.214181 -18.730986 -9.864925 13.222014 0.000000 0.000000 0.000000 6.858289 -0.970809 -5.764703 0.992224 -5.270904 -11.830589 -1.998904 -2.601956 0.843074 -13.820495 16.744130 -37.890792 0.644880 -42.828947 1.036485 0.000000 0.000000 0.000000 7.394490 -0.900811 -5.269460 1.545041 2.357341 8.138266 5.031813 3.568014 -2.510339 10.736677 4.137129 73.236294 3.128414 64.030892 -2.694908 0.000000 0.000000 0.000000 
12.598146 88.010170 0.422798 0.000000 0.000000 0.000000 6.092748 -7.698415 -7.779971 -54.777619 -10.074212 25.011685 56.087475 2.876475 -3.488207 -1.433828 2.957171 -12.235519 -1.023320 0.225707 -0.473977 0.000000 0.000000 0.000000 6.528075 -6.911339 -8.161595 -39.490521 -14.499453 2.019400 46.235839 0.311798 -2.011727 -12.399935 -18.168346 -6.422555 -0.298482 0.456753 -0.961257 0.000000 0.000000 0.000000 4.954234 -9.044636 -8.429058 8.969331 -1.839772 -5.951777 6.033383 -0.989532 -5.281337 1.201890 2.144328 -0.010350 0.000000 0.000000 0.000000 6.584691 -1.041749 -5.385026 -2.552416 -0.032292 -5.957884 -14.544229 -9.464227 13.824414 0.000000 0.000000 0.000000 6.373862 -1.002001 -5.749669 0.990230 -5.051676 -12.453921 -2.688206 -2.348797 0.402159 -12.566045 15.024620 -40.095188 0.856064 -40.419181 1.098970 0.000000 0.000000 0.000000 6.939229 -0.861743 -5.301630 1.462233 2.624711 9.021613 4.899818 3.540681 -2.503647 8.915656 6.180386 71.781101 2.742732 62.591560 -2.380146 0.000000 0.000000 0.000000 
12.209270 88.969925 0.175503 0.000000 0.000000 0.000000 4.937065 -8.573971 -7.745997 -51.912897 -9.559715 25.209909 54.929788 3.443766 -3.406336 -1.889246 2.931838 -11.509718 -1.239116 0.232920 -0.359128 0.000000 0.000000 0.000000 5.422069 -7.804064 -8.079756 -38.362044 -13.422988 2.947098 43.914332 -0.148483 -2.155349 -9.945865 -17.737166 -6.166016 -0.849896 0.274746 -0.915632 0.000000 0.000000 0.000000 3.666824 -10.321446 -8.224190 8.321035 -1.729751 -5.918577 5.560605 -1.097346 -5.254636 1.133945 2.437606 -0.048714 0.000000 0.000000 0.000000 5.820480 -1.078351 -5.365358 -1.640475 -0.107507 -5.575769 -9.885080 -9.143898 14.547589 0.000000 0.000000 0.000000 5.788063 -1.093718 -5.721379 0.967773 -4.936223 -12.976856 -3.363279 -2.119556 -0.173769 -12.367048 12.388402 -41.342445 1.182291 -38.493123 1.219577 0.000000 0.000000 0.000000 6.358963 -0.915111 -5.348004 1.385314 2.680611 9.841715 4.633473 3.480543 -2.563125 7.781653 8.072550 70.252321 2.460555 62.220913 -2.133845 0.000000 0.000000 0.000000 
11.760492 90.041336 -0.084690 0.000000 0.000000 0.000000 3.688528 -9.520206 -7.705049 -48.847129 -8.638234 25.426028 53.849509 3.944632 -3.246197 -2.597320 2.972594 -10.537187 -1.577102 0.217936 -0.180468 0.000000 0.000000 0.000000 4.113441 -8.523861 -8.061054 -36.726320 -12.641302 3.802951 41.275267 -0.644085 -2.313384 -7.296075 -17.192979 -5.730393 -1.286457 0.108821 -1.032511 0.000000 0.000000 0.000000 2.139091 -11.242420 -8.128933 7.601683 -1.650554 -5.832443 5.054446 -1.264373 -5.219703 1.028524 2.614140 -0.015856 0.000000 0.000000 0.000000 5.040258 -1.158904 -5.340373 -0.761019 -0.225273 -5.065512 -5.150045 -8.819345 15.261996 0.000000 0.000000 0.000000 5.165533 -1.219054 -5.658136 0.916755 -5.026022 -13.298787 -3.641111 -1.928318 -0.627281 -13.235528 8.853116 -41.726889 1.478311 -36.522319 1.315177 0.000000 0.000000 0.000000 5.749034 -1.031560 -5.378321 1.304703 2.603971 10.589712 4.308693 3.525792 -2.545168 7.267511 9.777652 68.477277 2.231315 62.530327 -1.906365 0.000000 0.000000 0.000000 
11.322308 91.126892 -0.454716 0.000000 0.000000 0.000000 2.375227 -10.556156 -7.636886 -45.923293 -7.331875 25.512234 53.236291 4.409797 -3.026088 -3.566043 3.160603 -9.265719 -1.894824 0.188603 -0.084795 0.000000 0.000000 0.000000 2.678385 -9.119684 -8.047793 -34.712544 -12.108403 4.575662 38.446151 -1.222591 -2.474372 -4.916111 -16.482469 -5.414203 -1.497382 0.013094 -1.223784 0.000000 0.000000 0.000000 0.475282 -11.911893 -8.120327 6.896976 -1.585251 -5.659896 4.582853 -1.443251 -5.151424 1.103476 2.726624 -0.086990 0.000000 0.000000 0.000000 4.313489 -1.253241 -5.276964 -0.030422 -0.362987 -4.442842 -0.785186 -8.466359 15.795579 0.000000 0.000000 0.000000 4.575650 -1.338627 -5.543478 0.847576 -5.411117 -13.358297 -3.576503 -1.783058 -0.837883 -15.031399 4.459322 -41.456485 1.624982 -34.164060 1.321740 0.000000 0.000000 0.000000 5.192494 -1.173066 -5.364975 1.215936 2.531330 11.228445 3.846996 3.631294 -2.506606 7.179426 11.284833 66.256776 2.032865 63.044702 -1.663391 0.000000 0.000000 0.000000 
10.914430 92.109520 -0.821159 0.000000 0.000000 0.000000 0.960688 -11.659896 -7.491645 -43.181737 -5.673528 25.287990 53.227722 4.922616 -2.767653 -4.989709 3.762038 -7.586287 -1.950491 0.151903 -0.193320 0.000000 0.000000 0.000000 1.233103 -9.623695 -7.958051 -32.564692 -11.751198 5.213321 35.869275 -1.964108 -2.606247 -3.150227 -15.616206 -5.663978 -1.257783 0.012624 -1.329640 0.000000 0.000000 0.000000 -1.187159 -12.450955 -8.122539 6.263597 -1.514199 -5.395185 4.186474 -1.578173 -5.037917 1.239183 2.838385 -0.234089 0.000000 0.000000 0.000000 3.707069 -1.328656 -5.160986 0.501533 -0.493818 -3.777746 2.806415 -7.977208 15.967121 0.000000 0.000000 0.000000 4.081135 -1.415668 -5.369897 0.774135 -6.000494 -13.141616 -3.264339 -1.651273 -0.851144 -17.401273 -0.608336 -40.780160 1.587941 -31.588314 1.263501 0.000000 0.000000 0.000000 4.726127 -1.285691 -5.309658 1.117096 2.604836 11.665234 3.412660 3.744843 -2.424247 7.087304 12.539613 63.485741 1.810813 63.374409 -1.401132 0.000000 0.000000 0.000000 
